<svg width="32" height="32" viewBox="0 0 32 32" fill="none" xmlns="http://www.w3.org/2000/svg">
<path fill-rule="evenodd" clip-rule="evenodd" d="M20.0686 19.0943H21.1527L28 25.9554L25.9554 28L19.0943 21.1527V20.0686L18.7238 19.6844C17.1595 21.0292 15.1286 21.8388 12.9194 21.8388C7.99314 21.8388 4 17.8456 4 12.9194C4 7.99314 7.99314 4 12.9194 4C17.8456 4 21.8388 7.99314 21.8388 12.9194C21.8388 15.1286 21.0292 17.1595 19.6844 18.7238L20.0686 19.0943ZM6.74442 12.9194C6.74442 16.3362 9.50256 19.0943 12.9194 19.0943C16.3362 19.0943 19.0943 16.3362 19.0943 12.9194C19.0943 9.50256 16.3362 6.74442 12.9194 6.74442C9.50256 6.74442 6.74442 9.50256 6.74442 12.9194Z" fill="#3E4462"/>
</svg>
