<svg width="24" height="24" viewBox="0 0 24 24" fill="none" xmlns="http://www.w3.org/2000/svg">
<path d="M21.8582 9.40529C18.9926 6.78509 15.5836 5.39999 12.0001 5.39999C8.41656 5.39999 5.00757 6.78509 2.14193 9.40529C1.96052 9.57137 1.84053 9.81833 1.80848 10.0922C1.77665 10.366 1.83519 10.6441 1.97142 10.8653L6.4836 18.1839C6.6516 18.4564 6.90804 18.5999 7.1676 18.5999C7.34592 18.5999 7.52598 18.5321 7.67976 18.3915C8.93562 17.2433 10.4294 16.6362 12.0001 16.6362C13.5704 16.6362 15.0645 17.2433 16.3204 18.3915C16.6976 18.7367 17.233 18.6436 17.5163 18.1839L22.0285 10.8653C22.165 10.6441 22.2235 10.366 22.1914 10.0922C22.1596 9.81857 22.0396 9.57137 21.8582 9.40529ZM16.6389 16.1385C15.4858 15.2782 14.201 14.7572 12.8548 14.602V11.4257C12.8548 10.8501 12.4722 10.3836 12.0001 10.3836C11.5279 10.3836 11.1453 10.8501 11.1453 11.4257V14.602C9.79908 14.7572 8.5143 15.2782 7.36128 16.1385L3.86679 10.4705C6.2817 8.51351 9.07608 7.48421 12.0001 7.48421C14.924 7.48421 17.7184 8.51351 20.1334 10.4705L16.6389 16.1385Z" fill="#3E4462"/>
</svg>
